<?xml version="1.0" encoding="UTF-8"?>
<!-- Generator: Adobe Illustrator 17.1.0, SVG Export Plug-In . SVG Version: 6.00 Build 0)  -->
<!DOCTYPE svg PUBLIC "-//W3C//DTD SVG 1.1//EN" "http://www.w3.org/Graphics/SVG/1.1/DTD/svg11.dtd">
<svg version="1.1" id="Ebene_2" xmlns="http://www.w3.org/2000/svg" xmlns:xlink="http://www.w3.org/1999/xlink" x="0px" y="0px" viewBox="0 0 192 90" enable-background="new 0 0 192 90" xml:space="preserve">
<g>
	<g>
		<path fill="#4C4C4C" d="M30.4,57.2c-3.7,0-6.8-1.3-9.4-3.9c-2.6-2.6-3.9-5.7-3.9-9.4v-20h7.6v8.6h5.7v6.7h-5.7v4.7    c0,1.6,0.6,2.9,1.7,4c1.1,1.1,2.5,1.7,4,1.7V57.2z"/>
		<path fill="#4C4C4C" d="M49.1,43.9c0,3.7-1.3,6.8-3.9,9.4c-2.6,2.6-5.7,3.9-9.4,3.9h-3.4v-7.6h3.4c1.6,0,2.9-0.6,4-1.7    c1.1-1.1,1.7-2.5,1.7-4c0-1.6-0.6-2.9-1.7-4l-7.4-7.4h10.8l2,2C47.8,37,49.1,40.2,49.1,43.9z"/>
		<path fill="#3A8CCC" d="M13.6,33.8L6,26.2v-2.3h7.6V33.8z"/>
		<polygon fill="#4C4C4C" points="6,31 6,57.2 13.6,57.2 13.6,38.5 6,31   "/>
	</g>
	<g>
		<path fill="#3A8CCC" d="M76.6,51c0,4.1-2.1,6.1-6.2,6.1h-6.1c-4.1,0-6.1-2-6.1-6.1V27.3c0-0.5,0.3-0.8,0.8-0.8h1.4    c0.5,0,0.8,0.3,0.8,0.8l0,4.5c0,0.5,0.3,0.8,0.8,0.8h8.4c4.1,0,6.2,2.1,6.2,6.2L76.6,51z M61.3,51c0,2,1,3.1,3.1,3.1h6.1    c2.1,0,3.1-1,3.1-3l0-12.3c0-2-1-3.1-3.1-3h-8.3c-0.6,0-0.9,0.3-0.9,0.9L61.3,51z"/>
		<path fill="#3A8CCC" d="M87.1,42.8h8.4c0.5,0,0.8-0.3,0.8-0.8l0-3.3c0-2-1-3.1-3.1-3.1h-9.4c-0.5,0-0.8-0.3-0.8-0.8v-1.4    c0-0.5,0.3-0.8,0.8-0.8h9.4c4.1,0,6.1,2,6.1,6.1l0,11.2c0,4.8-2.1,7.2-6.2,7.2h-6.1c-4.1,0-6.2-2.4-6.2-7.2    C80.9,45.2,83,42.8,87.1,42.8z M96.3,46.8c0-0.5-0.3-0.8-0.9-0.9h-8.3c-2.1,0-3.1,1.3-3.1,4c0,2.7,1,4.1,3.1,4.1h6.1    c2.1,0,3.1-1.4,3.1-4.1L96.3,46.8z"/>
		<path fill="#3A8CCC" d="M110.4,56.7l-7.2-23.2c0-0.5,0.3-0.8,0.8-0.8h1.2c0.5,0,0.9,0.3,1,0.8l5.8,18.1c0.2,0.9,0.4,0.9,0.7,0    l5.8-18.1c0.1-0.5,0.5-0.8,1-0.8h1.2c0.5,0,0.8,0.3,0.8,0.8l-7.3,23.2c-0.1,0.3-0.4,0.5-0.9,0.5h-2    C110.8,57.1,110.4,57,110.4,56.7z"/>
		<path fill="#3A8CCC" d="M130.4,42.8h8.4c0.5,0,0.8-0.3,0.8-0.8l0-3.3c0-2-1-3.1-3.1-3.1h-9.4c-0.5,0-0.8-0.3-0.8-0.8v-1.4    c0-0.5,0.3-0.8,0.8-0.8h9.4c4.1,0,6.1,2,6.1,6.1l0,11.2c0,4.8-2.1,7.2-6.2,7.2h-6.1c-4.1,0-6.2-2.4-6.2-7.2    C124.3,45.2,126.3,42.8,130.4,42.8z M139.6,46.8c0-0.5-0.3-0.8-0.9-0.9h-8.3c-2.1,0-3.1,1.3-3.1,4c0,2.7,1,4.1,3.1,4.1h6.1    c2.1,0,3.1-1.4,3.1-4.1L139.6,46.8z"/>
		<path fill="#3A8CCC" d="M147,56.3l0-17.6c0-4.1,2-6.1,6.1-6.1h3.3c0.5,0,0.8,0.3,0.8,0.8v1.5c0,0.5-0.3,0.8-0.8,0.8h-3.3    c-2,0-3,1-3,3l0,17.6c0,0.5-0.3,0.8-0.8,0.8l-1.4,0C147.3,57.1,147,56.9,147,56.3z"/>
		<path fill="#3A8CCC" d="M161.1,56.3c0,0.5,0.3,0.8,0.8,0.8h1.4c0.5,0,0.8-0.3,0.8-0.8V33.4c0-0.5-0.3-0.8-0.8-0.8h-1.4    c-0.5,0-0.8,0.3-0.8,0.8V56.3z"/>
		<path fill="#3A8CCC" d="M174.7,42.8h8.4c0.5,0,0.8-0.3,0.8-0.8l0-3.3c0-2-1-3.1-3.1-3.1h-9.4c-0.5,0-0.8-0.3-0.8-0.8v-1.4    c0-0.5,0.3-0.8,0.8-0.8h9.4c4.1,0,6.1,2,6.1,6.1l0,11.2c0,4.8-2.1,7.2-6.2,7.2h-6.1c-4.1,0-6.2-2.4-6.2-7.2    C168.5,45.2,170.6,42.8,174.7,42.8z M183.9,46.8c0-0.5-0.3-0.8-0.9-0.9h-8.3c-2.1,0-3.1,1.3-3.1,4c0,2.7,1,4.1,3.1,4.1h6.1    c2.1,0,3.1-1.4,3.1-4.1L183.9,46.8z"/>
	</g>
</g>
</svg>